<svg width="108" height="31" viewBox="0 0 108 31" fill="none" xmlns="http://www.w3.org/2000/svg">
<g clip-path="url(#clip0_70_3780)">
<mask id="mask0_70_3780" style="mask-type:luminance" maskUnits="userSpaceOnUse" x="0" y="0" width="108" height="31">
<path d="M107.4 0.498047H0V30.498H107.4V0.498047Z" fill="white"/>
</mask>
<g mask="url(#mask0_70_3780)">
<path d="M15.8754 25.9615C17.8125 25.7975 19.6659 25.0993 21.2295 23.9443L24.1366 27.3943C21.9154 29.1002 19.2608 30.1502 16.4736 30.4255C13.6864 30.7007 10.8779 30.19 8.36589 28.9514C5.85393 27.7127 3.73893 25.7956 2.26037 23.4169C0.781787 21.0382 -0.00130282 18.2932 -0.000243066 15.4924C0.000816685 12.6916 0.785983 9.94712 2.26635 7.56959C3.74673 5.19206 5.86319 3.27647 8.37608 2.03972C10.889 0.802966 13.6979 0.294456 16.4849 0.571758C19.2719 0.849061 21.9255 1.9011 24.1455 3.60876L21.237 7.05876C19.6745 5.90235 17.8217 5.20241 15.8847 5.03688C13.948 4.87134 12.0032 5.24673 10.2671 6.12122C8.53101 6.9957 7.07177 8.33496 6.05189 9.98982C5.03199 11.6447 4.49153 13.5502 4.49066 15.4941C4.4898 17.438 5.02857 19.3439 6.047 20.9998C7.06541 22.6555 8.52347 23.996 10.2588 24.872C11.9941 25.7482 13.9385 26.1253 15.8754 25.9615Z" fill="#7C7A7A"/>
<path d="M25.1686 26.5227L22.2616 23.0727H22.2661C23.2901 22.0947 24.1054 20.9191 24.6623 19.6171C25.2191 18.3151 25.5064 16.9138 25.5064 15.4977C25.5064 14.0816 25.2191 12.6802 24.6623 11.3782C24.1054 10.0762 23.2901 8.90069 22.2661 7.92266L25.1761 4.47266C26.6981 5.87781 27.9127 7.583 28.7432 9.48078C29.5736 11.3786 30.002 13.4278 30.0013 15.4993C30.0007 17.5708 29.5709 19.6198 28.7392 21.517C27.9074 23.4142 26.6917 25.1185 25.1686 26.5227Z" fill="#7C7A7A"/>
<path d="M84.9701 1.39941V25.4894H87.8411V1.39941H84.9701Z" fill="#7C7A7A"/>
<path fill-rule="evenodd" clip-rule="evenodd" d="M99.2171 23.2125C96.1481 23.2125 93.8051 21.5295 93.2441 18.5595H107.071C107.137 18.1305 107.17 17.7015 107.17 17.2725C107.17 12.6525 103.936 8.56055 98.9531 8.56055C93.8051 8.56055 90.3071 12.3555 90.3071 17.2395C90.3071 22.1895 93.8381 25.9185 99.1511 25.9185C102.451 25.9185 104.959 24.4335 106.411 22.1895L103.969 20.8035C103.144 22.1565 101.494 23.2125 99.2171 23.2125ZM93.2441 16.0515C93.7061 13.1805 95.8511 11.2665 98.9531 11.2665C101.428 11.2665 103.771 12.7845 104.266 16.0515H93.2441Z" fill="#7C7A7A"/>
<path d="M75.7004 25.9185C70.7174 25.9185 67.0214 22.1235 67.0214 17.2395C67.0214 12.3555 70.7174 8.56055 75.7004 8.56055C78.9674 8.56055 81.7394 10.2765 82.9934 12.8835L80.5844 14.2695C79.7594 12.5205 77.9114 11.3655 75.7004 11.3655C72.4004 11.3655 69.8924 13.9065 69.8924 17.2395C69.8924 20.5395 72.4004 23.0805 75.7004 23.0805C77.9444 23.0805 79.7594 21.9255 80.6834 20.2095L83.1254 21.6285C81.7394 24.2025 78.9344 25.9185 75.7004 25.9185Z" fill="#7C7A7A"/>
<path d="M67.0286 8.69238C64.9496 8.69238 62.9366 9.45138 61.8806 11.7614V8.98938H59.0096V25.4894H61.8806V16.7444C61.8806 12.8504 64.5536 11.5964 67.0286 11.6954V8.69238Z" fill="#7C7A7A"/>
<path d="M54.2005 5.986C53.1115 5.986 52.2535 5.128 52.2535 4.072C52.2535 3.016 53.1115 2.125 54.2005 2.125C55.2565 2.125 56.1145 3.016 56.1145 4.072C56.1145 5.128 55.2565 5.986 54.2005 5.986Z" fill="#7C7A7A"/>
<path d="M52.7485 25.4893V8.98926H55.6195V25.4893H52.7485Z" fill="#7C7A7A"/>
<path d="M34.8 17.2395C34.8 22.1235 38.496 25.9185 43.479 25.9185C46.713 25.9185 49.518 24.2025 50.904 21.6285L48.462 20.2095C47.538 21.9255 45.723 23.0805 43.479 23.0805C40.179 23.0805 37.671 20.5395 37.671 17.2395C37.671 13.9065 40.179 11.3655 43.479 11.3655C45.69 11.3655 47.5381 12.5205 48.3631 14.2695L50.7721 12.8835C49.5181 10.2765 46.746 8.56055 43.479 8.56055C38.496 8.56055 34.8 12.3555 34.8 17.2395Z" fill="#7C7A7A"/>
</g>
</g>
<defs>
<clipPath id="clip0_70_3780">
<rect width="107.4" height="30" fill="white" transform="translate(0 0.5)"/>
</clipPath>
</defs>
</svg>
