<svg width="120" height="31" viewBox="0 0 120 31" fill="none" xmlns="http://www.w3.org/2000/svg">
<g clip-path="url(#clip0_70_3770)">
<mask id="mask0_70_3770" style="mask-type:luminance" maskUnits="userSpaceOnUse" x="0" y="0" width="121" height="31">
<path d="M120 0.5H0.150146V30.5H120V0.5Z" fill="white"/>
</mask>
<g mask="url(#mask0_70_3770)">
<path fill-rule="evenodd" clip-rule="evenodd" d="M17.4445 0.695312L23.1794 7.49421L24.5171 20.0578L14.3946 30.6953L2.61719 20.0228L8.54736 4.93394L17.4445 0.695312ZM9.06165 6.09231L13.7919 11.0894L8.9544 18.1058L3.88445 19.2653L9.06165 6.09231ZM4.09761 20.1448L13.0881 28.2919L8.96481 19.0318L4.09761 20.1448ZM9.95219 19.0306L14.5091 29.2645L23.077 20.2607L9.95219 19.0306ZM23.4718 18.7588L22.3604 8.32265L15.2066 11.1963L23.4718 18.7588ZM14.4877 10.5102L21.9973 7.49367L17.2043 1.81158L9.65708 5.40716L14.4877 10.5102ZM14.4487 11.7276L22.7474 19.3208L10.035 18.1294L14.4487 11.7276Z" fill="#7C7A7A"/>
<path d="M60.4539 24.2724C57.9129 24.2724 55.7679 23.4474 54.0519 21.7644C52.3359 20.0814 51.4779 17.9694 51.4779 15.4614C51.4779 12.9534 52.3359 10.8744 54.0519 9.19139C55.7679 7.50839 57.9129 6.65039 60.4539 6.65039C62.5989 6.65039 64.4469 7.27739 66.0639 8.53139C67.6809 9.75239 68.7039 11.3694 69.1329 13.3164H66.1299C65.2389 10.9734 63.0939 9.38939 60.4539 9.38939C58.7049 9.38939 57.2859 9.98339 56.1309 11.1384C54.9759 12.2934 54.4149 13.7124 54.4149 15.4614C54.4149 17.2104 54.9759 18.6624 56.1309 19.8174C57.2859 20.9724 58.7049 21.5334 60.4539 21.5334C63.0939 21.5334 65.2389 19.9494 66.1299 17.6064H69.1329C68.7039 19.5534 67.6809 21.1704 66.0639 22.4244C64.4469 23.6454 62.5989 24.2724 60.4539 24.2724Z" fill="#7C7A7A"/>
<path d="M97.1597 8.39939C96.0047 7.24439 94.4867 6.65039 92.6057 6.65039C89.8007 6.65039 87.7547 7.80539 86.5337 10.1484C85.5767 7.93739 83.4647 6.65039 80.7917 6.65039C78.3497 6.65039 76.5017 7.57439 75.2807 9.45539V7.04639H72.4427V23.8764H75.2807V13.8774C75.2807 11.2044 77.1287 9.38939 79.9007 9.38939C82.5407 9.38939 84.2567 11.1384 84.2567 13.8114V23.8764H87.0947V13.8774C87.0947 11.2044 88.9427 9.38939 91.7147 9.38939C94.3547 9.38939 96.0707 11.1384 96.0707 13.8114V23.8764H98.9087V13.0194C98.9087 11.0724 98.3147 9.55439 97.1597 8.39939Z" fill="#7C7A7A"/>
<path fill-rule="evenodd" clip-rule="evenodd" d="M119.886 16.5504V16.5501C119.916 16.159 119.944 15.7962 119.944 15.4614C119.944 12.9534 119.086 10.8744 117.37 9.19139C115.687 7.50839 113.542 6.65039 111.001 6.65039C108.46 6.65039 106.315 7.50839 104.599 9.19139C102.916 10.8744 102.058 12.9534 102.058 15.4614C102.058 17.9694 102.916 20.0814 104.599 21.7644C106.315 23.4474 108.46 24.2724 111.001 24.2724C115.093 24.2724 118.393 21.9624 119.614 18.4974H116.479C115.588 20.3784 113.509 21.6654 111.001 21.6654C109.483 21.6654 108.163 21.2034 107.074 20.2794C105.985 19.3554 105.325 18.1344 105.094 16.6494H119.878L119.886 16.5504ZM116.908 14.1084H105.127C105.688 11.2044 107.998 9.25739 111.001 9.25739C114.004 9.25739 116.38 11.2374 116.908 14.1084Z" fill="#7C7A7A"/>
<path fill-rule="evenodd" clip-rule="evenodd" d="M49.0262 7.04688H36.2222V9.78589H46.1882V13.0859H41.1722C39.4232 13.0859 37.9712 13.6139 36.8162 14.7029C35.6612 15.7589 35.1002 17.0789 35.1002 18.6629C35.1002 20.2799 35.6612 21.5999 36.8162 22.6889C37.9712 23.7449 39.4232 24.2729 41.1722 24.2729C43.4492 24.2729 45.4292 23.2829 46.4852 21.6989V23.8769H49.0262V7.04688ZM46.1882 18.3659C46.1882 20.3459 44.3072 21.6989 41.5352 21.6989C39.5222 21.6989 38.0372 20.4119 38.0372 18.6629C38.0372 16.9469 39.5222 15.6599 41.5352 15.6599H46.1882V18.3659Z" fill="#7C7A7A"/>
</g>
</g>
<defs>
<clipPath id="clip0_70_3770">
<rect width="119.85" height="30" fill="white" transform="translate(0.149902 0.5)"/>
</clipPath>
</defs>
</svg>
