<svg width="128" height="31" viewBox="0 0 128 31" fill="none" xmlns="http://www.w3.org/2000/svg">
<g clip-path="url(#clip0_70_3794)">
<mask id="mask0_70_3794" style="mask-type:luminance" maskUnits="userSpaceOnUse" x="0" y="0" width="128" height="31">
<path d="M127.6 0.5H0.400391V30.5H127.6V0.5Z" fill="white"/>
</mask>
<g mask="url(#mask0_70_3794)">
<path d="M15.4814 0.5C6.52489 0.5 0.400391 6.2 0.400391 15.581C0.400391 24.5375 6.52489 30.5 15.4814 30.5C24.4379 30.5 30.4004 24.5375 30.4004 15.581C30.4004 6.2 24.4379 0.5 15.4814 0.5ZM24.3899 24.4895C23.8061 25.0709 23.1549 25.5805 22.4504 26.0075V13.7L19.7504 12.2V27.2C18.7733 27.4912 17.7674 27.6748 16.7504 27.7475V8.0225L14.0504 6.5225V27.7385C13.0848 27.6589 12.1299 27.4808 11.2004 27.2075V13.1L8.50039 14.6V26.0285C5.09389 23.999 3.10039 20.3285 3.10039 15.575C3.10039 11.7605 4.26589 8.603 6.47239 6.443C8.64139 4.3235 11.7569 3.2 15.4814 3.2C19.2059 3.2 22.2689 4.319 24.4004 6.434C26.5619 8.585 27.7004 11.7485 27.7004 15.584C27.7004 19.25 26.5559 22.325 24.3899 24.4895Z" fill="#7C7A7A"/>
<path d="M94.2929 8.90039H97.2899L97.2629 22.4004H94.2659L94.2929 8.90039Z" fill="#7C7A7A"/>
<path d="M95.7779 6.33485C95.2919 6.33485 94.8689 6.16385 94.5089 5.82185C94.1669 5.46185 93.9958 5.03885 93.9958 4.55285C93.9958 4.06685 94.1669 3.65285 94.5089 3.31085C94.8689 2.96885 95.2919 2.79785 95.7779 2.79785C96.2639 2.79785 96.6779 2.96885 97.0199 3.31085C97.3799 3.65285 97.5599 4.06685 97.5599 4.55285C97.5599 5.03885 97.3799 5.46185 97.0199 5.82185C96.6779 6.16385 96.2639 6.33485 95.7779 6.33485Z" fill="#7C7A7A"/>
<path d="M100.287 22.4002H103.311V15.3532C103.311 14.0752 103.59 13.0942 104.148 12.4102C104.706 11.7262 105.489 11.3932 106.497 11.4112C107.091 11.4112 107.604 11.5282 108.036 11.7622C108.486 11.9962 108.828 12.4102 109.062 13.0042C109.314 13.5802 109.44 14.4082 109.44 15.4882V22.4002H112.464V14.6782C112.464 12.6082 112.014 11.0782 111.114 10.0882C110.232 9.08017 108.972 8.57617 107.334 8.57617C106.272 8.57617 105.354 8.84617 104.58 9.38617C104.06 9.7365 103.622 10.2003 103.265 10.7777L103.122 8.90017H100.287V22.4002Z" fill="#7C7A7A"/>
<path fill-rule="evenodd" clip-rule="evenodd" d="M117.498 21.8332C118.524 22.4272 119.694 22.7242 121.008 22.7242C122.034 22.7242 122.943 22.5802 123.735 22.2922C124.545 22.0042 125.238 21.5902 125.814 21.0502C126.408 20.5102 126.894 19.8802 127.272 19.1602L124.491 17.9722C124.203 18.5482 123.798 19.0252 123.276 19.4032C122.754 19.7632 122.088 19.9432 121.278 19.9432C120.54 19.9432 119.865 19.7812 119.253 19.4572C118.659 19.1152 118.182 18.6292 117.822 17.9992C117.567 17.5292 117.407 16.9892 117.342 16.3792H127.542C127.542 14.7592 127.254 13.3642 126.678 12.1942C126.102 11.0242 125.328 10.1332 124.356 9.52117C123.402 8.89117 122.322 8.57617 121.116 8.57617C119.784 8.57617 118.596 8.88217 117.552 9.49417C116.526 10.0882 115.716 10.9162 115.122 11.9782C114.528 13.0402 114.231 14.2642 114.231 15.6502C114.231 17.0362 114.519 18.2602 115.095 19.3222C115.689 20.3842 116.49 21.2212 117.498 21.8332ZM124.217 13.9762C124.17 13.8056 124.118 13.6436 124.059 13.4902C123.789 12.7342 123.393 12.1762 122.871 11.8162C122.367 11.4382 121.746 11.2492 121.008 11.2492C120.234 11.2492 119.568 11.4202 119.01 11.7622C118.452 12.1042 118.029 12.6082 117.741 13.2742C117.646 13.4893 117.566 13.7233 117.502 13.9762H124.217Z" fill="#7C7A7A"/>
<path d="M88.2361 3.5V22.4H91.2601V3.5H88.2361Z" fill="#7C7A7A"/>
<path fill-rule="evenodd" clip-rule="evenodd" d="M82.5709 22.4L82.4626 20.3846C82.0892 20.9776 81.6304 21.4694 81.0859 21.86C80.2759 22.436 79.3039 22.724 78.1699 22.724C76.9459 22.724 75.8749 22.436 74.9569 21.86C74.0569 21.266 73.3459 20.438 72.8239 19.376C72.3199 18.314 72.0679 17.072 72.0679 15.65C72.0679 14.21 72.3199 12.968 72.8239 11.924C73.3459 10.862 74.0569 10.043 74.9569 9.467C75.8749 8.873 76.9459 8.576 78.1699 8.576C79.3039 8.576 80.2759 8.873 81.0859 9.467C81.6175 9.83683 82.0675 10.3068 82.4359 10.877V3.5H85.4329V22.4H82.5709ZM81.9769 17.891C82.2829 17.243 82.4359 16.496 82.4359 15.65C82.4359 14.804 82.2829 14.057 81.9769 13.409C81.6889 12.761 81.2749 12.257 80.7349 11.897C80.2129 11.537 79.6009 11.357 78.8989 11.357C78.1789 11.357 77.5399 11.537 76.9819 11.897C76.4239 12.257 75.9829 12.761 75.6589 13.409C75.3529 14.057 75.1909 14.804 75.1729 15.65C75.1909 16.496 75.3529 17.243 75.6589 17.891C75.9829 18.539 76.4239 19.052 76.9819 19.43C77.5579 19.79 78.2059 19.97 78.9259 19.97C79.6099 19.97 80.2129 19.79 80.7349 19.43C81.2749 19.052 81.6889 18.539 81.9769 17.891Z" fill="#7C7A7A"/>
<path d="M66.983 3.5V22.4H70.007V3.5H66.983Z" fill="#7C7A7A"/>
<path fill-rule="evenodd" clip-rule="evenodd" d="M58.0445 22.7242C56.6945 22.7242 55.4885 22.4272 54.4265 21.8332C53.3825 21.2212 52.5635 20.3842 51.9695 19.3222C51.3755 18.2602 51.0785 17.0362 51.0785 15.6502C51.0785 14.2642 51.3665 13.0402 51.9425 11.9782C52.5365 10.9162 53.3555 10.0882 54.3995 9.49417C55.4435 8.88217 56.6405 8.57617 57.9905 8.57617C59.3405 8.57617 60.5375 8.88217 61.5815 9.49417C62.6256 10.0882 63.4355 10.9162 64.0115 11.9782C64.6055 13.0402 64.9025 14.2642 64.9025 15.6502C64.9025 17.0362 64.6145 18.2602 64.0385 19.3222C63.4625 20.3842 62.6525 21.2212 61.6085 21.8332C60.5645 22.4272 59.3765 22.7242 58.0445 22.7242ZM58.0445 19.9432C58.7825 19.9432 59.4395 19.7632 60.0155 19.4032C60.5915 19.0252 61.0415 18.5212 61.3655 17.8912C61.6895 17.2432 61.8515 16.4962 61.8515 15.6502C61.8515 14.8042 61.6806 14.0662 61.3386 13.4362C61.0145 12.7882 60.5645 12.2842 59.9885 11.9242C59.4125 11.5462 58.7465 11.3572 57.9905 11.3572C57.2345 11.3572 56.5685 11.5372 55.9925 11.8972C55.4165 12.2572 54.9665 12.7612 54.6425 13.4092C54.3185 14.0572 54.1565 14.8042 54.1565 15.6502C54.1565 16.4962 54.3185 17.2432 54.6425 17.8912C54.9845 18.5212 55.4435 19.0252 56.0195 19.4032C56.6135 19.7632 57.2885 19.9432 58.0445 19.9432Z" fill="#7C7A7A"/>
<path fill-rule="evenodd" clip-rule="evenodd" d="M39.5035 27.9082C40.2775 28.0702 41.1415 28.1512 42.0955 28.1512C43.4815 28.1512 44.6965 27.8722 45.7405 27.3142C46.7845 26.7742 47.5945 25.9642 48.1705 24.8842C48.7465 23.8222 49.0345 22.5262 49.0345 20.9962V8.90017H46.0105V11.0771C45.6073 10.4066 45.1033 9.86094 44.4985 9.44017C43.6885 8.86417 42.7345 8.57617 41.6365 8.57617C40.4125 8.57617 39.3415 8.86417 38.4235 9.44017C37.5235 10.0162 36.8125 10.8172 36.2905 11.8432C35.7865 12.8692 35.5345 14.0842 35.5345 15.4882C35.5345 16.8022 35.7865 17.9632 36.2905 18.9712C36.8125 19.9612 37.5235 20.7352 38.4235 21.2932C39.3415 21.8512 40.4125 22.1302 41.6365 22.1302C42.7345 22.1302 43.6885 21.8602 44.4985 21.3202C45.1033 20.9126 45.6073 20.3897 46.0105 19.7515V21.0772C46.0105 22.0852 45.8395 22.9132 45.4975 23.5612C45.1555 24.2092 44.6785 24.6862 44.0665 24.9922C43.4545 25.3162 42.7615 25.4782 41.9875 25.4782C41.2675 25.4782 40.6195 25.4062 40.0435 25.2622C39.4675 25.1182 38.9635 24.9472 38.5315 24.7492C38.1175 24.5692 37.7845 24.4162 37.5325 24.2902L36.3715 26.7202C36.6595 26.9182 37.0645 27.1252 37.5865 27.3412C38.1085 27.5572 38.7475 27.7462 39.5035 27.9082ZM44.2555 19.0252C43.7515 19.3852 43.1575 19.5652 42.4735 19.5652C41.7535 19.5652 41.1145 19.3852 40.5565 19.0252C39.9985 18.6652 39.5575 18.1792 39.2335 17.5672C38.9275 16.9372 38.7745 16.2172 38.7745 15.4072C38.7745 14.5792 38.9275 13.8592 39.2335 13.2472C39.5575 12.6172 39.9895 12.1312 40.5295 11.7892C41.0875 11.4292 41.7265 11.2492 42.4465 11.2492C43.1305 11.2492 43.7335 11.4292 44.2555 11.7892C44.7775 12.1312 45.1825 12.6172 45.4705 13.2472C45.7585 13.8592 45.9025 14.5792 45.9025 15.4072C45.9025 16.2172 45.7585 16.9372 45.4705 17.5672C45.1825 18.1792 44.7775 18.6652 44.2555 19.0252Z" fill="#7C7A7A"/>
</g>
</g>
<defs>
<clipPath id="clip0_70_3794">
<rect width="127.2" height="30" fill="white" transform="translate(0.400024 0.5)"/>
</clipPath>
</defs>
</svg>
