<svg width="96" height="31" viewBox="0 0 96 31" fill="none" xmlns="http://www.w3.org/2000/svg">
<g clip-path="url(#clip0_70_3809)">
<path d="M30.553 0.547314C22.316 8.8354 22.3316 22.2316 30.6001 30.5C22.3316 22.2316 8.93536 22.2157 0.647266 30.4528C8.88409 22.1648 8.86855 8.76845 0.600098 0.5C8.86855 8.76845 22.2649 8.78443 30.553 0.547314Z" fill="#7C7A7A"/>
<path d="M94.3149 5.4622H91.4769V1.7002H94.3149V5.4622Z" fill="#7C7A7A"/>
<path d="M94.315 25.8891H91.4771V8.66309H94.315V25.8891Z" fill="#7C7A7A"/>
<path d="M83.8612 8.66309H88.3342V11.0391H84.1252V25.8891H81.2542V11.2041C81.2542 9.52109 82.1122 8.66309 83.8612 8.66309Z" fill="#7C7A7A"/>
<path fill-rule="evenodd" clip-rule="evenodd" d="M69.6481 15.6261C65.7211 15.6261 63.3781 17.5401 63.3781 20.9391C63.3781 24.1401 65.4571 26.2191 68.9221 26.2191C71.7271 26.2191 74.0371 24.9981 74.7961 23.0511H74.9941L75.0271 23.9421C75.1261 25.2291 75.6871 25.8891 77.2711 25.8891H78.858V23.7771H77.6671V14.372C77.6671 13.58 77.6341 12.854 77.1061 11.633C76.8421 11.006 76.4791 10.478 76.0501 10.016C75.1591 9.09201 73.3771 8.33301 71.1001 8.33301C66.9091 8.33301 64.2691 10.379 64.1041 13.811H66.9091C67.0081 11.831 68.3941 10.61 70.9351 10.61C73.5421 10.61 74.8291 11.831 74.8291 14.306V15.6261H69.6481ZM66.3151 21.2691V20.2131C66.3151 18.7281 67.6351 17.7051 69.9121 17.7051H74.8291V18.6291C74.8291 21.7971 72.7831 23.9091 69.5821 23.9091C67.6021 23.9091 66.3151 22.9851 66.3151 21.2691Z" fill="#7C7A7A"/>
<path d="M57.3149 11.0391V23.5131H60.9449V25.8891H56.9849C55.3019 25.8891 54.4769 25.0971 54.4769 23.4801V11.0391H51.3419V8.6631H54.4769V2.9541H57.3149V8.6631H60.9119V11.0391H57.3149Z" fill="#7C7A7A"/>
<path d="M38.8381 20.6751H36.0001C36.0001 24.0081 38.6731 26.2191 43.0291 26.2191C47.2201 26.2191 49.8931 24.2391 49.8931 20.9391C49.8931 18.3651 48.3751 16.8141 45.3721 16.2861L41.9731 15.6591C41.2801 15.5271 40.9831 15.428 40.2901 15.131C39.5971 14.768 39.2011 14.108 39.2011 13.184C39.2011 11.567 40.4881 10.544 42.8311 10.544C45.2731 10.544 46.5271 11.567 46.5931 13.58H49.4311C49.3981 10.412 46.9231 8.33301 42.8311 8.33301C38.8711 8.33301 36.3301 10.28 36.3301 13.481C36.3301 15.9561 37.8481 17.4741 40.9171 18.0351L44.6131 18.7281C46.1311 19.0251 46.8901 19.8171 46.8901 21.1041C46.8901 22.9191 45.4381 23.9751 43.0291 23.9751C40.4881 23.9751 38.8381 22.6881 38.8381 20.6751Z" fill="#7C7A7A"/>
</g>
<defs>
<clipPath id="clip0_70_3809">
<rect width="95.25" height="30" fill="white" transform="translate(0.600098 0.5)"/>
</clipPath>
</defs>
</svg>
