<svg width="120" height="31" viewBox="0 0 120 31" fill="none" xmlns="http://www.w3.org/2000/svg">
<g clip-path="url(#clip0_70_3758)">
<path d="M14.3402 9.53874C14.7985 9.34968 15.2907 9.25623 15.7864 9.26413C16.2857 9.26097 16.7807 9.35655 17.2429 9.54538C17.705 9.7342 18.1253 10.0126 18.4796 10.3644C18.8338 10.7163 19.115 11.1347 19.3069 11.5956C19.4989 12.0565 19.5977 12.5508 19.5979 13.0501C19.5932 14.0533 19.1906 15.0137 18.4786 15.7204C17.7665 16.4271 16.8031 16.8225 15.7999 16.8196C15.2981 16.821 14.801 16.7227 14.3375 16.5304C13.874 16.3381 13.4534 16.0555 13.1 15.6993C12.7466 15.3429 12.4676 14.92 12.2791 14.4549C12.0906 13.9898 11.9964 13.4919 12.0019 12.9901C11.9986 12.499 12.0962 12.0125 12.2887 11.5607C12.4812 11.1089 12.7645 10.7014 13.1209 10.3636C13.4669 10.0085 13.8818 9.72781 14.3402 9.53874Z" fill="#7C7A7A"/>
<path fill-rule="evenodd" clip-rule="evenodd" d="M5.19332 4.84359C8.00638 2.03055 11.8217 0.450195 15.7999 0.450195C19.7782 0.450195 23.5935 2.03055 26.4066 4.84359C29.2195 7.65665 30.7999 11.4719 30.7999 15.4502C30.7999 19.4285 29.2195 23.2437 26.4066 26.0568C23.5935 28.8698 19.7782 30.4502 15.7999 30.4502H4.39993C3.44515 30.4502 2.52947 30.0708 1.85434 29.3958C1.17921 28.7207 0.799927 27.8049 0.799927 26.8502V15.4502C0.799927 11.4719 2.38028 7.65665 5.19332 4.84359ZM13.5634 27.5342L20.5729 18.0617C21.891 16.2597 22.5499 14.5822 22.5499 13.0292C22.5499 11.2792 21.8734 9.7607 20.5204 8.4737C19.8928 7.85052 19.1478 7.35818 18.3285 7.02524C17.509 6.6923 16.6318 6.52539 15.7474 6.5342C14.8661 6.52262 13.9916 6.69104 13.1776 7.02918C12.3636 7.36731 11.6272 7.86804 11.0134 8.5007C10.3806 9.10916 9.87979 9.84128 9.54199 10.6516C9.2042 11.4618 9.03671 12.3329 9.04993 13.2107C9.03553 14.0274 9.18395 14.8388 9.48656 15.5975C9.78919 16.3562 10.2399 17.0471 10.8124 17.6297C11.9994 18.8627 13.4039 19.4792 15.0259 19.4792C15.1474 19.4792 15.2929 19.4702 15.4759 19.4537C15.6589 19.4372 15.8794 19.4102 16.1389 19.3757L11.3389 25.8842L13.5634 27.5342Z" fill="#7C7A7A"/>
<path d="M63.9145 22.6504V2.40039H61.4623V22.6504H63.9145Z" fill="#7C7A7A"/>
<path d="M97.5813 8.38574V22.6504H95.1291V8.38574H97.5813Z" fill="#7C7A7A"/>
<path d="M94.9446 4.60205C94.9446 4.20655 95.0632 3.87257 95.3005 3.6001C95.5467 3.32764 95.907 3.19141 96.3816 3.19141C96.8473 3.19141 97.2033 3.32764 97.4494 3.6001C97.7043 3.87257 97.8318 4.20655 97.8318 4.60205C97.8318 4.97999 97.7043 5.30518 97.4494 5.57764C97.2033 5.84132 96.8473 5.97316 96.3816 5.97316C95.907 5.97316 95.5467 5.84132 95.3005 5.57764C95.0632 5.30518 94.9446 4.97999 94.9446 4.60205Z" fill="#7C7A7A"/>
<path d="M106.659 10.2573V8.38525H103.996V4.91797H101.557V8.38525H98.9465V10.2573H101.557V19.1035C101.557 20.0528 101.702 20.8087 101.992 21.3712C102.291 21.9248 102.691 22.3204 103.192 22.5577C103.693 22.795 104.242 22.9136 104.84 22.9136C105.279 22.9136 105.653 22.8829 105.96 22.8214C106.277 22.7686 106.531 22.7114 106.725 22.6499L106.712 20.6593C106.597 20.6855 106.426 20.7208 106.197 20.7647C105.978 20.7998 105.767 20.8174 105.565 20.8174C105.292 20.8174 105.037 20.7779 104.8 20.6987C104.563 20.6197 104.369 20.4571 104.22 20.2109C104.071 19.9649 103.996 19.6001 103.996 19.1167V10.2573H106.659Z" fill="#7C7A7A"/>
<path d="M112.232 22.4965L107.141 8.38574H109.804L113.374 19.058L116.686 8.38574H119.296L113.574 24.8521C113.443 25.2035 113.267 25.5815 113.047 25.9858C112.836 26.3989 112.564 26.7901 112.23 27.1592C111.896 27.5284 111.491 27.8272 111.017 28.0556C110.551 28.2929 109.993 28.4116 109.342 28.4116C109.149 28.4116 108.903 28.3852 108.604 28.3325C108.305 28.2797 108.094 28.2358 107.971 28.2007L107.958 26.2231C108.028 26.2319 108.138 26.2408 108.288 26.2495C108.446 26.267 108.556 26.2759 108.617 26.2759C109.171 26.2759 109.641 26.2012 110.028 26.0518C110.415 25.9111 110.74 25.6694 111.004 25.3267C111.276 24.9926 111.509 24.5312 111.702 23.9423L112.232 22.4965Z" fill="#7C7A7A"/>
<path d="M88.9253 20.5541C88.4332 20.7914 87.897 20.9101 87.3169 20.9101C86.5611 20.9101 85.9282 20.7652 85.4185 20.4751C84.9175 20.1763 84.5176 19.7807 84.2188 19.2886C83.9287 18.7964 83.7221 18.2471 83.5991 17.6407C83.4761 17.0342 83.4146 16.4189 83.4146 15.7949V15.2412C83.4146 14.6172 83.4761 14.0063 83.5991 13.4087C83.731 12.8023 83.9419 12.2529 84.232 11.7607C84.5308 11.2598 84.9307 10.8643 85.4317 10.5742C85.9414 10.2754 86.5699 10.126 87.3169 10.126C87.9673 10.126 88.5343 10.271 89.0176 10.561C89.5097 10.8423 89.8966 11.2202 90.1779 11.6948C90.4678 12.1694 90.6347 12.7012 90.6787 13.2901H92.999C92.9551 12.3057 92.6914 11.4268 92.2081 10.6533C91.7335 9.8711 91.0786 9.25586 90.2437 8.80762C89.4088 8.3506 88.4332 8.12207 87.3169 8.12207C86.2447 8.12207 85.3087 8.31104 84.5089 8.68897C83.7178 9.06691 83.0587 9.58546 82.5313 10.2446C82.0127 10.9038 81.6217 11.6641 81.358 12.5254C81.103 13.3779 80.9756 14.2832 80.9756 15.2412V15.7949C80.9756 16.753 81.103 17.6626 81.358 18.5239C81.6217 19.3765 82.0127 20.1323 82.5313 20.7914C83.0587 21.4507 83.7178 21.9692 84.5089 22.3472C85.3087 22.7251 86.2447 22.9141 87.3169 22.9141C88.3278 22.9141 89.2549 22.6943 90.0986 22.2548C90.9424 21.8066 91.6235 21.2222 92.1421 20.5015C92.6695 19.772 92.9551 18.9853 92.999 18.1415H90.6787C90.6347 18.6778 90.4546 19.1567 90.1382 19.5785C89.8217 19.9916 89.4175 20.3168 88.9253 20.5541Z" fill="#7C7A7A"/>
<path fill-rule="evenodd" clip-rule="evenodd" d="M66.3741 15.6763V15.3731C66.3741 14.3447 66.5235 13.3911 66.8223 12.5122C67.1212 11.6245 67.5519 10.8555 68.1144 10.2051C68.6769 9.5459 69.358 9.03614 70.1578 8.67578C70.9576 8.30665 71.854 8.12207 72.8472 8.12207C73.8492 8.12207 74.7501 8.30665 75.5499 8.67578C76.3585 9.03614 77.044 9.5459 77.6065 10.2051C78.1779 10.8555 78.6129 11.6245 78.9117 12.5122C79.2105 13.3911 79.3599 14.3447 79.3599 15.3731V15.6763C79.3599 16.7045 79.2105 17.6582 78.9117 18.5371C78.6129 19.4161 78.1779 20.185 77.6065 20.8442C77.044 21.4946 76.3629 22.0043 75.5631 22.3735C74.772 22.7339 73.8756 22.9141 72.8736 22.9141C71.8717 22.9141 70.9708 22.7339 70.171 22.3735C69.3712 22.0043 68.6856 21.4946 68.1144 20.8442C67.5519 20.185 67.1212 19.4161 66.8223 18.5371C66.5235 17.6582 66.3741 16.7045 66.3741 15.6763ZM68.8131 15.3731V15.6763C68.8131 16.3882 68.8966 17.0605 69.0636 17.6933C69.2305 18.3173 69.481 18.8711 69.8151 19.3544C70.1578 19.8379 70.5841 20.2202 71.0938 20.5015C71.6035 20.7739 72.1969 20.9101 72.8736 20.9101C73.5415 20.9101 74.1261 20.7739 74.6271 20.5015C75.1368 20.2202 75.5587 19.8379 75.8926 19.3544C76.2267 18.8711 76.4772 18.3173 76.6441 17.6933C76.8199 17.0605 76.9078 16.3882 76.9078 15.6763V15.3731C76.9078 14.6699 76.8199 14.0063 76.6441 13.3823C76.4772 12.7495 76.2222 12.1914 75.8794 11.708C75.5455 11.2158 75.1236 10.8291 74.6139 10.5479C74.1129 10.2666 73.524 10.126 72.8472 10.126C72.1792 10.126 71.5905 10.2666 71.0806 10.5479C70.5796 10.8291 70.1578 11.2158 69.8151 11.708C69.481 12.1914 69.2305 12.7495 69.0636 13.3823C68.8966 14.0063 68.8131 14.6699 68.8131 15.3731Z" fill="#7C7A7A"/>
<path fill-rule="evenodd" clip-rule="evenodd" d="M53.6768 22.9141C52.6836 22.9141 51.7827 22.7471 50.9741 22.4131C50.1743 22.0703 49.4843 21.5912 48.9042 20.9761C48.333 20.3608 47.8935 19.6313 47.5859 18.7876C47.2782 17.9438 47.1245 17.021 47.1245 16.019V15.4654C47.1245 14.3052 47.2959 13.2725 47.6387 12.3672C47.9814 11.4531 48.4472 10.6797 49.0361 10.0469C49.625 9.41407 50.2929 8.93507 51.0401 8.60987C51.7871 8.28467 52.5605 8.12207 53.3603 8.12207C54.3798 8.12207 55.2588 8.29785 55.997 8.64942C56.7441 9.00098 57.3549 9.49318 57.8295 10.126C58.3041 10.75 58.6557 11.4883 58.8843 12.3408C59.1128 13.1846 59.2271 14.1074 59.2271 15.1094V16.2035H49.5789C49.5942 16.8119 49.6857 17.3876 49.8534 17.9306C50.0468 18.5195 50.3237 19.0381 50.6841 19.4863C51.0531 19.9346 51.497 20.2861 52.0157 20.5411C52.5429 20.7959 53.1407 20.9233 53.8086 20.9233C54.6699 20.9233 55.3994 20.7475 55.997 20.396C56.5947 20.0444 57.1176 19.5742 57.5658 18.9853L59.0424 20.1587C58.7348 20.6245 58.3437 21.0683 57.8691 21.4903C57.3945 21.9121 56.81 22.2548 56.1156 22.5185C55.4301 22.7822 54.6171 22.9141 53.6768 22.9141ZM49.6503 14.2129H56.7881V14.0283C56.753 13.3955 56.6211 12.7803 56.3925 12.1826C56.1728 11.585 55.8213 11.0928 55.3379 10.7061C54.8544 10.3193 54.1953 10.126 53.3603 10.126C52.8066 10.126 52.2968 10.2446 51.831 10.4819C51.3653 10.7105 50.9654 11.0532 50.6313 11.5103C50.2973 11.9673 50.0381 12.5254 49.8534 13.1846C49.7642 13.5037 49.6964 13.8464 49.6503 14.2129Z" fill="#7C7A7A"/>
<path d="M39.4179 22.6504L34.2499 8.38574H36.7548L40.378 19.3147L43.9135 8.38574H46.4052L41.2768 22.6504H39.4179Z" fill="#7C7A7A"/>
</g>
<defs>
<clipPath id="clip0_70_3758">
<rect width="118.8" height="30" fill="white" transform="translate(0.649902 0.450195)"/>
</clipPath>
</defs>
</svg>
