<svg width="181" height="38" viewBox="0 0 181 38" fill="none" xmlns="http://www.w3.org/2000/svg">
<g clip-path="url(#clip0_66_3688)">
<mask id="mask0_66_3688" style="mask-type:luminance" maskUnits="userSpaceOnUse" x="0" y="-1" width="38" height="39">
<path d="M37.3351 -0.000976562H0V37.3341H37.3351V-0.000976562Z" fill="white"/>
</mask>
<g mask="url(#mask0_66_3688)">
<path d="M30.9778 14.9853C30.7166 6.80192 24.0855 0.198011 15.8745 -0.000976562C15.6631 -0.000976562 15.489 0.160701 15.489 0.372125L15.4765 5.86917C15.4765 6.14277 15.2649 6.3542 14.9913 6.36664C6.80517 6.61537 0.199055 13.2566 0 21.4648C0 21.6763 0.161732 21.8504 0.373226 21.8504L5.85966 21.8628C6.13336 21.8628 6.34485 22.0743 6.35729 22.3478C6.61855 30.5312 13.2619 37.1351 21.4606 37.3341C21.672 37.3341 21.8461 37.1725 21.8461 36.961L21.8586 31.4639C21.8586 31.1904 22.0701 30.9789 22.3438 30.9665C30.5299 30.7054 37.1361 24.0641 37.3351 15.8683C37.3351 15.6569 37.1733 15.4828 36.9619 15.4828L31.4755 15.4703C31.2017 15.4703 30.9902 15.2589 30.9778 14.9853ZM21.3112 30.9292C16.6583 30.6556 12.926 26.8748 12.7519 22.1986C12.7395 21.9996 12.5777 21.8379 12.3787 21.8379L6.90469 21.8255C6.61855 21.8255 6.39462 21.5892 6.40705 21.3032C6.68075 16.6518 10.4628 12.9208 15.1405 12.7467C15.3396 12.7343 15.5013 12.5726 15.5013 12.3736L15.5137 6.88898C15.5137 6.60293 15.7502 6.37907 16.0363 6.39151C20.6892 6.66512 24.4215 10.4459 24.5956 15.1221C24.6081 15.3211 24.7698 15.4828 24.9688 15.4828L30.4428 15.4952C30.729 15.4952 30.9529 15.7315 30.9405 16.0175C30.6668 20.7933 26.6981 24.5864 21.8586 24.5864L21.8461 30.4317C21.8338 30.7177 21.5974 30.9416 21.3112 30.9292Z" fill="#191615"/>
</g>
</g>
<path d="M46.5771 9.36328H49.167V19.875L54.7803 13.875H57.7803L53.1982 18.8203L58.0732 26.168H54.9912L51.3467 20.7188L49.167 23.0273V26.168H46.5771V9.36328ZM58.9873 16.7227C59.4951 15.7695 60.1982 15.0352 61.0967 14.5195C62.0107 13.9961 63.0498 13.7344 64.2139 13.7344C65.3936 13.7344 66.4365 13.9766 67.3428 14.4609C68.249 14.9453 68.96 15.625 69.4756 16.5C70.0068 17.3984 70.2764 18.4297 70.2842 19.5938C70.2842 19.9141 70.2607 20.2422 70.2139 20.5781H60.9443V20.7188C61.0068 21.7891 61.3428 22.6367 61.9521 23.2617C62.5615 23.8867 63.3701 24.1992 64.3779 24.1992C65.1826 24.1992 65.8545 24.0117 66.3936 23.6367C66.9404 23.2539 67.2998 22.7227 67.4717 22.043H70.0615C69.835 23.3008 69.2334 24.3242 68.2568 25.1133C67.2725 25.9102 66.042 26.3086 64.5654 26.3086C63.2842 26.3086 62.1709 26.0508 61.2256 25.5352C60.2646 25.0117 59.5264 24.2773 59.0107 23.332C58.4951 22.3789 58.2373 21.2852 58.2373 20.0508C58.2373 18.7773 58.4873 17.668 58.9873 16.7227ZM67.6357 18.6797C67.5186 17.7812 67.1631 17.082 66.5693 16.582C65.9678 16.0742 65.2139 15.8203 64.3076 15.8203C63.4717 15.8203 62.7373 16.082 62.1045 16.6055C61.4873 17.1211 61.1318 17.8125 61.0381 18.6797H67.6357ZM73.4248 13.875L76.8467 23.3555L80.1865 13.875H82.9521L77.3857 28.0898C77.0967 28.8086 76.8311 29.3711 76.5889 29.7773C76.3545 30.168 76.0576 30.4648 75.6982 30.668C75.3389 30.8711 74.8662 30.9727 74.2803 30.9727H71.5029V28.6875H73.3193C73.8271 28.6875 74.1709 28.6133 74.3506 28.4648C74.5459 28.3008 74.749 27.9609 74.96 27.4453L75.4639 26.2617L70.6592 13.875H73.4248ZM86.0459 22.1133C86.0928 22.7539 86.3896 23.2773 86.9365 23.6836C87.4834 24.0898 88.2021 24.293 89.0928 24.293C89.8662 24.293 90.5029 24.1445 91.0029 23.8477C91.4873 23.5586 91.7295 23.1641 91.7295 22.6641C91.7295 22.25 91.6162 21.9375 91.3896 21.7266C91.1787 21.5234 90.8818 21.375 90.499 21.2812C90.1865 21.2031 89.6045 21.1133 88.7529 21.0117C87.6982 20.8867 86.8154 20.7148 86.1045 20.4961C85.4092 20.2852 84.8467 19.9414 84.417 19.4648C83.9951 18.9961 83.7842 18.3594 83.7842 17.5547C83.7842 16.8047 83.9951 16.1367 84.417 15.5508C84.8389 14.9648 85.4248 14.5117 86.1748 14.1914C86.9248 13.8711 87.7686 13.7109 88.7061 13.7109C90.2607 13.7109 91.5225 14.0547 92.4912 14.7422C93.4521 15.4297 93.9756 16.3984 94.0615 17.6484H91.542C91.4873 17.1016 91.2061 16.6406 90.6982 16.2656C90.2139 15.9062 89.5889 15.7266 88.8232 15.7266C88.0732 15.7266 87.4678 15.8711 87.0068 16.1602C86.5381 16.457 86.3037 16.8477 86.3037 17.332C86.3037 17.6992 86.4209 17.9766 86.6553 18.1641C86.8896 18.3516 87.1826 18.4805 87.5342 18.5508C87.8936 18.6211 88.46 18.7031 89.2334 18.7969C90.3271 18.9219 91.2139 19.0938 91.8936 19.3125C92.6123 19.5469 93.1904 19.918 93.6279 20.4258C94.0576 20.9258 94.2725 21.6094 94.2725 22.4766C94.2725 23.2422 94.0498 23.918 93.6045 24.5039C93.1748 25.0742 92.5576 25.5195 91.7529 25.8398C90.9795 26.1523 90.1006 26.3086 89.1162 26.3086C87.4756 26.3086 86.1436 25.9375 85.1201 25.1953C84.1123 24.4609 83.5889 23.4336 83.5498 22.1133H86.0459ZM97.167 16.1602H95.0342V13.875H97.167V10.4531H99.7803V13.875H102.733V16.1602H99.7803V22.5703C99.7803 23.0391 99.8779 23.3789 100.073 23.5898C100.261 23.7852 100.589 23.8828 101.058 23.8828H103.026V26.168H100.53C99.374 26.168 98.5225 25.8945 97.9756 25.3477C97.4365 24.8086 97.167 23.9688 97.167 22.8281V16.1602ZM106.671 25.5352C105.718 25.0117 104.979 24.2734 104.456 23.3203C103.94 22.375 103.683 21.2773 103.683 20.0273C103.683 18.793 103.94 17.6992 104.456 16.7461C104.964 15.8086 105.702 15.0703 106.671 14.5312C107.624 14 108.714 13.7344 109.94 13.7344C111.175 13.7344 112.269 14 113.222 14.5312C114.175 15.0625 114.909 15.8008 115.425 16.7461C115.948 17.707 116.21 18.8008 116.21 20.0273C116.21 21.2617 115.948 22.3594 115.425 23.3203C114.901 24.2812 114.167 25.0195 113.222 25.5352C112.269 26.0508 111.175 26.3086 109.94 26.3086C108.706 26.3086 107.616 26.0508 106.671 25.5352ZM109.94 24.1055C111.026 24.1055 111.901 23.7266 112.565 22.9688C113.229 22.2109 113.562 21.2305 113.562 20.0273C113.562 18.8242 113.229 17.8438 112.565 17.0859C111.901 16.3281 111.026 15.9492 109.94 15.9492C108.854 15.9492 107.983 16.3281 107.327 17.0859C106.671 17.8438 106.343 18.8242 106.343 20.0273C106.343 21.2227 106.671 22.2031 107.327 22.9688C107.983 23.7266 108.854 24.1055 109.94 24.1055ZM128.339 15.082C129.253 15.9648 129.71 17.4023 129.71 19.3945V26.168H127.097V19.5469C127.097 18.375 126.851 17.4844 126.358 16.875C125.874 16.2734 125.144 15.9727 124.167 15.9727C123.144 15.9727 122.339 16.3281 121.753 17.0391C121.175 17.7422 120.886 18.7227 120.886 19.9805V26.168H118.296V13.875H120.546L120.839 15.4922C121.761 14.3203 123.073 13.7344 124.776 13.7344C126.214 13.7344 127.401 14.1836 128.339 15.082ZM132.37 16.7227C132.878 15.7695 133.581 15.0352 134.479 14.5195C135.394 13.9961 136.433 13.7344 137.597 13.7344C138.776 13.7344 139.819 13.9766 140.726 14.4609C141.632 14.9453 142.343 15.625 142.858 16.5C143.39 17.3984 143.659 18.4297 143.667 19.5938C143.667 19.9141 143.644 20.2422 143.597 20.5781H134.327V20.7188C134.39 21.7891 134.726 22.6367 135.335 23.2617C135.944 23.8867 136.753 24.1992 137.761 24.1992C138.565 24.1992 139.237 24.0117 139.776 23.6367C140.323 23.2539 140.683 22.7227 140.854 22.043H143.444C143.218 23.3008 142.616 24.3242 141.64 25.1133C140.655 25.9102 139.425 26.3086 137.948 26.3086C136.667 26.3086 135.554 26.0508 134.608 25.5352C133.647 25.0117 132.909 24.2773 132.394 23.332C131.878 22.3789 131.62 21.2852 131.62 20.0508C131.62 18.7773 131.87 17.668 132.37 16.7227ZM141.019 18.6797C140.901 17.7812 140.546 17.082 139.952 16.582C139.351 16.0742 138.597 15.8203 137.69 15.8203C136.854 15.8203 136.12 16.082 135.487 16.6055C134.87 17.1211 134.515 17.8125 134.421 18.6797H141.019Z" fill="#191615"/>
<rect x="149.8" y="9.66797" width="30" height="18" rx="3.5" stroke="#191615"/>
<path d="M156.198 12.9648H157.511V24.168H156.198V12.9648ZM159.964 12.8555C160.203 12.8555 160.404 12.9362 160.565 13.0977C160.727 13.2591 160.808 13.4622 160.808 13.707C160.808 13.9466 160.727 14.1471 160.565 14.3086C160.404 14.4701 160.203 14.5508 159.964 14.5508C159.719 14.5508 159.516 14.4701 159.354 14.3086C159.193 14.1471 159.112 13.9466 159.112 13.707C159.112 13.4622 159.193 13.2591 159.354 13.0977C159.516 12.9362 159.719 12.8555 159.964 12.8555ZM159.308 16.0117H160.62V24.168H159.308V16.0117ZM162.956 17.207H161.487V16.0117H162.956V13.7227H164.269V16.0117H166.331V17.207H164.269V22.0273C164.269 22.3659 164.336 22.6081 164.472 22.7539C164.607 22.8945 164.839 22.9648 165.167 22.9648H166.589V24.168H165.089C164.323 24.168 163.776 23.9961 163.448 23.6523C163.12 23.3086 162.956 22.7721 162.956 22.043V17.207ZM167.503 17.8945C167.831 17.2643 168.287 16.7773 168.87 16.4336C169.464 16.0846 170.136 15.9102 170.886 15.9102C171.631 15.9102 172.292 16.0664 172.87 16.3789C173.448 16.6914 173.901 17.1393 174.229 17.7227C174.563 18.3112 174.74 18.9987 174.761 19.7852C174.761 19.931 174.75 20.1185 174.729 20.3477H168.394V20.457C168.42 21.2643 168.664 21.9049 169.128 22.3789C169.597 22.8581 170.211 23.0977 170.972 23.0977C171.555 23.0977 172.052 22.9492 172.464 22.6523C172.875 22.3555 173.151 21.9492 173.292 21.4336H174.62C174.464 22.2565 174.063 22.9362 173.417 23.4727C172.782 23.9987 171.998 24.2617 171.065 24.2617C170.258 24.2617 169.55 24.0898 168.94 23.7461C168.331 23.4023 167.857 22.9102 167.519 22.2695C167.185 21.6393 167.019 20.9128 167.019 20.0898C167.019 19.2513 167.18 18.5195 167.503 17.8945ZM173.401 19.2539C173.339 18.5612 173.081 18.0221 172.628 17.6367C172.18 17.2565 171.604 17.0664 170.901 17.0664C170.287 17.0664 169.745 17.2695 169.276 17.6758C168.802 18.0872 168.534 18.6133 168.472 19.2539H173.401Z" fill="#191615"/>
<defs>
<clipPath id="clip0_66_3688">
<rect width="37.3351" height="37.3351" fill="white"/>
</clipPath>
</defs>
</svg>
